<?xml version="1.0" encoding="UTF-8" standalone="no"?>
<!-- Created with Inkscape (http://www.inkscape.org/) -->

<svg
   xmlns:dc="http://purl.org/dc/elements/1.1/"
   xmlns:cc="http://creativecommons.org/ns#"
   xmlns:rdf="http://www.w3.org/1999/02/22-rdf-syntax-ns#"
   xmlns:svg="http://www.w3.org/2000/svg"
   xmlns="http://www.w3.org/2000/svg"
   xmlns:sodipodi="http://sodipodi.sourceforge.net/DTD/sodipodi-0.dtd"
   xmlns:inkscape="http://www.inkscape.org/namespaces/inkscape"
   width="1920"
   height="1080"
   id="svg2"
   version="1.1"
   inkscape:version="0.48.5 r10040"
   sodipodi:docname="arkaplan.svg"
   inkscape:export-filename="/home/trlinux/LimeArtwork/limeDefault/images/400x225.png"
   inkscape:export-xdpi="18.75"
   inkscape:export-ydpi="18.75">
  <defs
     id="defs4" />
  <sodipodi:namedview
     id="base"
     pagecolor="#ffffff"
     bordercolor="#666666"
     borderopacity="1.0"
     inkscape:pageopacity="0.0"
     inkscape:pageshadow="2"
     inkscape:zoom="0.35"
     inkscape:cx="1048.4381"
     inkscape:cy="635.16422"
     inkscape:document-units="px"
     inkscape:current-layer="layer1"
     showgrid="false"
     inkscape:window-width="1366"
     inkscape:window-height="716"
     inkscape:window-x="0"
     inkscape:window-y="0"
     inkscape:window-maximized="1" />
  <metadata
     id="metadata7">
    <rdf:RDF>
      <cc:Work
         rdf:about="">
        <dc:format>image/svg+xml</dc:format>
        <dc:type
           rdf:resource="http://purl.org/dc/dcmitype/StillImage" />
        <dc:title></dc:title>
      </cc:Work>
    </rdf:RDF>
  </metadata>
  <g
     inkscape:label="Layer 1"
     inkscape:groupmode="layer"
     id="layer1"
     transform="translate(0,27.637817)">
    <rect
       style="fill:#3e4837;fill-opacity:1;stroke:none"
       id="rect2985"
       width="1920"
       height="1080"
       x="0"
       y="-27.637817" />
    <rect
       style="fill:none;stroke:#1a1a1a;stroke-width:15.08620739000000022;stroke-linecap:round;stroke-linejoin:round;stroke-miterlimit:4;stroke-opacity:0.58823532;stroke-dasharray:none"
       id="rect3758-3"
       width="334.91379"
       height="303.65247"
       x="802.28949"
       y="353.03326"
       ry="67.887932" />
    <path
       style="fill:#1a1a1a;fill-opacity:0.58823529;stroke:none"
       d="m 816.96955,641.17872 741.16245,411.18348 361.868,0 0,-254.04063 -800.1734,-432.14286 1.4286,226.42857 c 0,0 -11.7227,27.19721 -21.4286,35.71429 -9.7059,8.51708 -32.8571,14.28571 -32.8571,14.28571 z"
       id="path3000"
       inkscape:connector-curvature="0"
       sodipodi:nodetypes="cccccczcc" />
    <path
       style="fill:#e5e5e5;fill-opacity:0.58823529;stroke:none"
       d="M 1091.4418,350.7177 396.91877,-27.637817 0,-27.637817 0,193.5749 811.56567,636.07176 795.03792,593.81729 787.1561,399.2891 c 0,0 11.7227,-27.1972 21.4286,-35.71419 9.7059,-8.51711 32.8571,-14.28581 32.8571,-14.28581 z"
       id="path3000-5"
       inkscape:connector-curvature="0"
       sodipodi:nodetypes="ccccccczcc" />
    <rect
       style="fill:none;stroke:#80ff80;stroke-width:15.08620739000000022;stroke-linecap:round;stroke-linejoin:round;stroke-miterlimit:4;stroke-opacity:1;stroke-dasharray:none"
       id="rect3758"
       width="334.91379"
       height="303.65247"
       x="792.54309"
       y="343.63824"
       ry="67.887932" />
    <path
       style="fill:#1a1a1a;fill-opacity:0.58823532;fill-rule:evenodd;stroke:none"
       d="m 846.62009,612.60024 c 0,0 14.57993,-14.37039 43.3298,-30.73828 28.74987,-16.36787 47.40357,-19.62801 47.40357,-19.62801 0,0 3.592,3.93789 7.0365,13.70257 3.4445,9.7647 3.7034,12.22123 3.7034,12.22123 0,0 27.3511,-25.71086 62.95794,-36.29334 35.6067,-10.5825 102.5842,-2.96272 102.5842,-2.96272 0,0 -36.6115,-16.14728 -85.5486,-19.62806 -23.7678,-1.69053 -60.14304,11.01256 -60.14304,11.01256 l 0.9189,-16.63093 -19.2881,6.7294 c 0,0 7.2797,-33.52926 12.9619,-48.14426 5.6823,-14.61497 20.3688,-39.25607 20.3688,-39.25607 l -62.5876,-9.2585 c 0,0 22.443,28.91489 4.8145,65.9206 -17.6285,37.00562 -40.49283,47.65157 -57.77312,73.32739 -17.28027,25.67577 -20.73905,39.62642 -20.73905,39.62642 z"
       id="path3347-6"
       inkscape:connector-curvature="0"
       sodipodi:nodetypes="czczczcsccczcczzc" />
    <path
       style="fill:#80ff80;fill-opacity:1;fill-rule:evenodd;stroke:none"
       d="m 837.66205,603.73816 c 0,0 14.57993,-14.37039 43.3298,-30.73828 28.74992,-16.36787 47.4036,-19.62801 47.4036,-19.62801 0,0 3.59193,3.93789 7.03644,13.70257 3.4445,9.7647 3.70343,12.22123 3.70343,12.22123 0,0 27.35114,-25.71086 62.95788,-36.29334 35.6067,-10.5825 102.5842,-2.96272 102.5842,-2.96272 0,0 -36.6115,-16.14728 -85.5486,-19.62806 -23.76776,-1.69053 -60.14298,11.01256 -60.14298,11.01256 l 0.9189,-16.63093 -19.28806,6.7294 c 0,0 7.27964,-33.52927 12.9619,-48.14426 5.68225,-14.61497 20.36874,-39.25607 20.36874,-39.25607 l -62.58753,-9.2585 c 0,0 22.44293,28.91489 4.81445,65.92059 -17.62851,37.00563 -40.49283,47.65158 -57.77312,73.3274 -17.28027,25.67577 -20.73905,39.62642 -20.73905,39.62642 z"
       id="path3347"
       inkscape:connector-curvature="0"
       sodipodi:nodetypes="czczczcsccczcczzc" />
    <path
       style="fill:#1a1a1a;fill-opacity:0.58823532;fill-rule:evenodd;stroke:none"
       d="m 911.95076,425.45159 c 0,0 -18.39991,4.10855 -30.35701,-0.37477 -11.95707,-4.48333 -35.22918,-29.98231 -35.22918,-29.98231 0,0 40.97402,-1.44599 52.09419,5.99648 11.1202,7.44243 13.492,24.3606 13.492,24.3606 z"
       id="path4151-7"
       inkscape:connector-curvature="0"
       sodipodi:nodetypes="czczc" />
    <path
       style="fill:#80ff80;fill-opacity:1;fill-rule:evenodd;stroke:none"
       d="m 902.99276,416.58951 c 0,0 -18.39995,4.10855 -30.35705,-0.37477 -11.95707,-4.48333 -35.22918,-29.98231 -35.22918,-29.98231 0,0 40.97402,-1.44599 52.0942,5.99648 11.12024,7.44243 13.49203,24.3606 13.49203,24.3606 z"
       id="path4151"
       inkscape:connector-curvature="0"
       sodipodi:nodetypes="czczc" />
  </g>
</svg>
